<svg xmlns="http://www.w3.org/2000/svg" viewBox="0 0 1440 320"><path fill="#8a51d4" fill-opacity="0.39" d="M0,256L13.3,234.7C26.7,213,53,171,80,149.3C106.7,128,133,128,160,117.3C186.7,107,213,85,240,96C266.7,107,293,149,320,165.3C346.7,181,373,171,400,165.3C426.7,160,453,160,480,181.3C506.7,203,533,245,560,245.3C586.7,245,613,203,640,165.3C666.7,128,693,96,720,80C746.7,64,773,64,800,101.3C826.7,139,853,213,880,229.3C906.7,245,933,203,960,154.7C986.7,107,1013,53,1040,48C1066.7,43,1093,85,1120,122.7C1146.7,160,1173,192,1200,202.7C1226.7,213,1253,203,1280,192C1306.7,181,1333,171,1360,186.7C1386.7,203,1413,245,1427,266.7L1440,288L1440,320L1426.7,320C1413.3,320,1387,320,1360,320C1333.3,320,1307,320,1280,320C1253.3,320,1227,320,1200,320C1173.3,320,1147,320,1120,320C1093.3,320,1067,320,1040,320C1013.3,320,987,320,960,320C933.3,320,907,320,880,320C853.3,320,827,320,800,320C773.3,320,747,320,720,320C693.3,320,667,320,640,320C613.3,320,587,320,560,320C533.3,320,507,320,480,320C453.3,320,427,320,400,320C373.3,320,347,320,320,320C293.3,320,267,320,240,320C213.3,320,187,320,160,320C133.3,320,107,320,80,320C53.3,320,27,320,13,320L0,320Z"></path></svg>
